<?xml version="1.0" standalone="no"?>
<!DOCTYPE svg PUBLIC "-//W3C//DTD SVG 20010904//EN"
 "http://www.w3.org/TR/2001/REC-SVG-20010904/DTD/svg10.dtd">
<svg version="1.0" xmlns="http://www.w3.org/2000/svg"
 width="16.000000pt" height="16.000000pt" viewBox="0 0 16.000000 16.000000"
 preserveAspectRatio="xMidYMid meet">
<metadata>
Created by potrace 1.11, written by Peter Selinger 2001-2013
</metadata>
<g transform="translate(0.000000,16.000000) scale(0.002286,-0.002286)"
fill="#000000" stroke="none">
<path d="M439 6430 c-1 -20 -1 -6413 0 -6422 1 -5 50 -8 109 -8 l108 0 -1
1581 c0 869 3 1583 6 1585 4 2 1285 4 2848 4 1563 0 2841 2 2841 5 0 3 -80
139 -177 303 -97 163 -210 353 -250 422 -41 69 -79 132 -84 140 -5 8 -49 83
-97 165 -49 83 -128 216 -176 297 l-86 147 133 223 c73 123 261 437 416 698
156 261 292 489 302 506 11 17 19 33 19 35 0 2 -1281 4 -2847 4 l-2848 0 0
157 c0 86 -3 159 -6 163 -4 3 -52 7 -108 8 -84 2 -101 -1 -102 -13z"/>
</g>
</svg>
