<?xml version="1.0" encoding="utf-8"?>
<!-- Generator: Adobe Illustrator 21.0.0, SVG Export Plug-In . SVG Version: 6.00 Build 0)  -->
<svg version="1.1" id="Layer_1" xmlns="http://www.w3.org/2000/svg" xmlns:xlink="http://www.w3.org/1999/xlink" x="0px" y="0px"
	 viewBox="0 0 1366 768" style="enable-background:new 0 0 1366 768;" xml:space="preserve">
<style type="text/css">
	.st0{fill:none;stroke:#2B5AA8;stroke-miterlimit:10;}
	.st1{opacity:0.8;}
	.st2{fill:none;stroke:#83CDC1;stroke-width:2;stroke-miterlimit:10;}
	.st3{fill:none;stroke:#2B5AA8;stroke-width:2;stroke-miterlimit:10;}
	.st4{fill:none;stroke:#F05B67;stroke-width:2;stroke-miterlimit:10;}
	.st5{fill:none;stroke:#F9B7A6;stroke-width:3;stroke-miterlimit:10;}
	.st6{opacity:0.5;}
	.st7{fill:none;stroke:#2B5AA8;stroke-width:3;stroke-miterlimit:10;}
	.st8{opacity:0.6;fill:none;stroke:#83CDC1;stroke-miterlimit:10;}
	.st9{fill:none;stroke:#F9B7A6;stroke-width:2;stroke-miterlimit:10;}
	.st10{fill:none;stroke:#F05B67;stroke-miterlimit:10;}
	.st11{fill:none;stroke:#83CDC1;stroke-miterlimit:10;}
	.st12{fill:none;stroke:#3D575D;stroke-width:2;stroke-miterlimit:10;}
	.st13{opacity:0.3;}
	.st14{fill:none;stroke:#B83D40;stroke-miterlimit:10;}
	.st15{opacity:0.51;}
	.st16{opacity:0.8;fill:none;stroke:#83CDC1;stroke-width:3;stroke-miterlimit:10;}
	.st17{opacity:0.28;}
	.st18{opacity:0.3;fill:none;stroke:#F9B7A6;stroke-miterlimit:10;}
	.st19{opacity:0.4;}
	.st20{opacity:0.5;fill:none;stroke:#F05B67;stroke-miterlimit:10;}
	.st21{fill:none;stroke:#F9B7A6;stroke-miterlimit:10;}
	.st22{opacity:0.2;}
	.st23{fill:none;stroke:#B83D40;stroke-width:2;stroke-miterlimit:10;}
	.st24{fill:none;stroke:#F05B67;stroke-width:3;stroke-miterlimit:10;}
</style>
<g>
	<path class="st0" d="M595.7,278.1v80.7h77.6v20.6h-77.6v81.4h-22v-81.4h-77.6v-20.6h77.6v-80.7H595.7z"/>
</g>
<g class="st1">
	<path class="st2" d="M595.7,278.1v80.7h77.6v20.6h-77.6v81.4h-22v-81.4h-77.6v-20.6h77.6v-80.7H595.7z"/>
</g>
<g>
	<path class="st2" d="M412.2,142.7l6.2,122.2h-11.1c-34-80.9-63-108.6-137.7-108.6H248V347h21c40.1,0,66.1-34,76.5-80.9h9.3v182.7
		h-10.5c-14.8-61.7-38.3-85.8-81.5-85.8H248v198.2h23.5c78.4,0,132.7-53.7,151.2-121H435l-4.9,134.6H91.2v-13.6h36.4V156.3H91.2
		v-13.6H412.2z"/>
</g>
<g>
	<path class="st3" d="M892,206v302.9c0,8.7,3.6,14.8,10.8,18.4c7.2,3.6,19.3,6.3,36.3,8.2c4.2,0,6.2,3,6.2,9.1
		c0,2.7-0.4,5.9-1.1,9.6c-12.1-0.8-24.9-1.4-38.3-2c-13.4-0.6-26.9-0.9-40.6-0.9c-13.2,0-26.8,0.3-40.6,0.9
		c-13.8,0.6-26.8,1.2-38.9,2c-0.8-3.8-1.1-7-1.1-9.6c0-5.3,1.9-8.3,5.7-9.1c17-2.3,29.3-5.1,36.9-8.5c7.6-3.4,11.3-9.4,11.3-18.2
		V206h-58.4c-11.3,0-20.9,1.1-28.6,3.4c-7.8,2.3-14.5,5.7-20.1,10.2c-5.7,4.5-10.6,10.4-14.7,17.6c-4.2,7.2-8.5,15.5-13,25
		c-0.8,1.9-2,3.2-3.7,4c-1.7,0.8-3.3,1.1-4.8,1.1c-4.2,0-7.8-1.1-10.8-3.4c3.8-13.6,6.6-25.7,8.5-36.3c1.9-10.6,3.6-19.4,5.1-26.4
		c1.5-7,3.1-12.4,4.8-16.2c1.7-3.8,4.4-5.7,8.2-5.7c2.6,0,6.4,0.2,11.3,0.6c4.9,0.4,10.1,0.8,15.6,1.1c5.5,0.4,11.1,0.8,16.7,1.1
		c5.7,0.4,11,0.6,15.9,0.6h189.5c4.5,0,9.6-0.2,15.3-0.6c5.7-0.4,11.3-0.8,17-1.1c5.7-0.4,10.9-0.8,15.6-1.1
		c4.7-0.4,8.6-0.6,11.6-0.6c3.8,0,6.5,2,8.2,6c1.7,4,3.3,9.6,4.8,16.7c1.5,7.2,3.1,16.1,4.8,26.7c1.7,10.6,4.6,22.3,8.8,35.2
		c-1.9,0.8-3.7,1.5-5.4,2.3c-1.7,0.8-3.7,1.1-6,1.1c-1.5,0-3.2-0.4-5.1-1.1c-1.9-0.8-3.2-2.1-4-4c-4.2-9.4-8.3-17.8-12.5-25
		c-4.2-7.2-9-13-14.5-17.6c-5.5-4.5-12.1-7.9-19.9-10.2c-7.8-2.3-17.3-3.4-28.6-3.4H892z"/>
</g>
<g>
	<path class="st4" d="M1151.6,586.1c2.7-8.4,4.7-16.9,6.3-25.7c1.5-8.7,2.7-18.9,3.6-30.5c0.9-11.6,1.4-25.1,1.7-40.6
		c0.3-15.5,0.4-34.2,0.4-56V179l-58.5-6.8V147h162.5v25.1L1212,179v241.5c0,32.5-0.1,60.8-0.4,85c-0.3,24.1-2.2,45.2-5.8,63.3
		c-3.4,16.7-9.2,31.6-17.3,44.6c-8.1,13-17.6,24.2-28.5,33.6c-10.9,9.4-22.8,17-35.5,22.8c-12.7,5.8-25.4,9.8-37.9,12.1l-12.8-20.8
		c8.7-2.3,17.1-5.7,25.1-10.1c8-4.5,15.4-9.8,22.2-16.1c6.8-6.3,12.9-13.5,18.1-21.7C1144.4,605,1148.6,596,1151.6,586.1z"/>
</g>
<g>
	<path class="st5" d="M65.3,547.8v-25.3l35-3l10.5-8.7v-340l-10.5-8.7l-35-3.6v-24.7H361v90.1h-34.7l-8.7-52.4l-8.4-9.3H166.3v156.1
		h101.3l8.7-8.7l6-44.9h29.2v135.9h-29.2l-6-44.6l-8.7-9.3H166.3v173h165.5l8.7-9.9l10.5-62.4h32v100.7H65.3z"/>
</g>
<g class="st6">
	<path class="st7" d="M990.8,173.9c6.9,2.4,12.1,5.8,15.7,10.2c3.6,4.4,5.2,8.8,4.9,13.3c-0.3,5.1-2.5,9.6-6.5,13.5
		c-4,3.9-9.9,6.7-17.8,8.4l-75.9,0.5c0,41,0.1,82.2,0.3,123.4c0.2,41.2,0.3,82.3,0.3,123.3c-0.3,9-3.2,15.5-8.5,19.7
		c-5.3,4.1-11.1,6.2-17.3,6.2c-5.9,0-11.3-2-16.3-5.9c-5-4-8-9.9-9-17.8l-0.5-248.8h-76.9c-8.6-1.7-14.9-4.8-18.8-9.2
		c-4-4.4-5.8-9.4-5.4-14.8c0.3-5.4,2.8-10.4,7.2-14.8c4.5-4.4,11.5-6.6,21.2-6.6c36.1,0,66.4,0,90.8,0c24.4,0,44.4-0.1,59.9-0.3
		c15.5-0.2,27.3-0.3,35.4-0.3C981.5,173.9,987.3,173.9,990.8,173.9z"/>
</g>
<g>
	<path class="st8" d="M1283.2,110.2V412c0,28.6-7.2,50-21.6,64.4c-14.4,14.4-35.9,21.6-64.4,21.6h-86.5c-28.6,0-50-7.2-64.4-21.6
		c-14.4-14.4-21.6-35.9-21.6-64.4v-86.5h86.1V412c0,11.7,4.3,21.8,12.8,30.2c8.6,8.4,18.7,12.6,30.4,12.6c11.8,0,22-4.2,30.5-12.6
		c8.5-8.4,12.7-18.5,12.7-30.2V110.2H1283.2z"/>
</g>
<g>
	<path class="st4" d="M440.1,186.1l4.8,95.8h-8.7c-26.6-63.4-49.3-85.2-107.9-85.2h-16.9v149.5h16.5c31.4,0,51.8-26.6,60-63.4h7.3
		v143.2h-8.2c-11.6-48.4-30-67.3-63.9-67.3h-11.6v155.3h18.4c61.4,0,104-42.1,118.5-94.8h9.7l-3.9,105.5H188.5v-10.6H217V196.7
		h-28.5v-10.6H440.1z"/>
</g>
<g>
	<path class="st9" d="M1056.2,239.6c0,6.2-2.9,9.3-8.6,9.3c-5.7,0-9.8-6.2-12.2-18.7c-1-8.6-1.9-17.2-2.9-25.8
		c-3.4-17.2-8.9-31.8-16.5-43.8c-10-15.8-26.5-25.8-49.5-30.1c-14.8-2.9-26.8-4.1-35.9-3.6c-22.5,0.6-36.1,1.1-40.9,1.4v433.3
		c0,17.3,4.5,28,13.6,32.3c4.8,2.4,18.2,3.8,40.2,4.3c5.7,0.4,8.6,2.5,8.6,6.1c0,4.1-3.8,6.1-11.5,6.1c-3.8,0-7.2-0.2-10-0.7
		c-28.7-1-49-1.4-61-1.4c-15.8,0-30.6,0.4-44.5,1.1c-13.9,0.7-31.6,1.1-53.1,1.1c-11,0-16.5-1.9-16.5-5.7c0-4.3,10.3-6.7,30.8-7.2
		c14.8,0,24.4-3.1,28.7-9.3c2.4-3.8,3.6-13.7,3.6-29.5V128.5c-47.3,0.5-76.8,2.9-88.2,7.2c-30.1,11-47.8,40.4-53.1,88.2
		c-1.4,14.3-4.8,21.5-10,21.5c-5.7,0-8.6-5-8.6-15.1c0-5.3,0.2-10.5,0.7-15.8l1.4-16.5c1.4-22,3.6-50.9,6.5-86.8h32.3l146.4,2.2
		c17.2,0.5,44,0.5,80.3,0l119.1-2.2c1,26.8,4.1,66.5,9.3,119.1c0,1.4,0.2,3.2,0.7,5.4C1055.9,237.9,1056.2,239.2,1056.2,239.6z"/>
</g>
<g>
	<path class="st3" d="M1204.2,287.2c0-40.3-6.1-47.7-43.4-49.4v-16.5h131.9v16.5c-37.3,1.3-42.9,8.7-42.9,52.5v265.9
		c0,72.4-31.7,111.9-90.2,111.9c-39.5,0-65.9-16.9-65.9-42.1c0-14.7,8.2-23,22.1-23c10.8,0,16.1,4.3,24.7,20.4
		c10,18.7,15.6,23.9,26.9,23.9c23.4,0,36.9-26.9,36.9-73.3V287.2z"/>
</g>
<g>
	<path class="st0" d="M325.1,383.2H191.9v123.5h148.4v37.1H147.6V201.2h185v37.1H191.9v108.3h133.2V383.2z"/>
</g>
<g>
	<path class="st10" d="M839.5,244.2h-87.3v-31.5h212.5v31.5H877v255.5h-37.5V244.2z"/>
</g>
<g>
	<path class="st11" d="M1184.8,176.4h42.1v218.2c0,86.6-42.6,113.2-98.7,113.2c-15.5,0-34.4-3.4-45-7.7l6.3-34.4
		c8.7,3.4,21.3,6.3,35.3,6.3c37.7,0,60-16.9,60-80.8V176.4z"/>
</g>
<g>
	<path class="st12" d="M180.4,373.5v147.9h99.1c4.6,0,8.1,3.6,8.1,7.6c0,5.6-2.5,8.1-8.1,8.1H172.8c-5.6,0-8.1-2.5-8.1-8.1V202.2
		c0-4.1,3.6-7.6,8.1-7.6h106.8c4.6,0,8.1,3.6,8.1,7.6c0,5.6-2.5,8.1-8.1,8.1l-99.1,0v147.4h99.1c5.6,0,8.1,2.5,8.1,8.1
		c0,4.1-3.6,7.6-8.1,7.6H180.4z"/>
</g>
<g class="st13">
	<path class="st14" d="M872.4,294.3v208.4h45.3c4.2,0,7.1,0.8,8.9,2.4c1.8,1.6,2.7,3.7,2.7,6.3c0,2.5-0.9,4.6-2.7,6.2
		c-1.8,1.7-4.8,2.5-8.9,2.5H809.3c-4.2,0-7.1-0.8-8.9-2.5c-1.8-1.7-2.7-3.7-2.7-6.2c0-2.6,0.9-4.7,2.7-6.3c1.8-1.6,4.8-2.4,8.9-2.4
		h45.3V294.3h-71.5v60.5c0,4.3-0.8,7.3-2.4,9.2c-1.6,1.8-3.7,2.7-6.3,2.7c-2.5,0-4.6-0.9-6.2-2.7c-1.7-1.8-2.5-4.9-2.5-9.2v-78
		h195.7v78c0,4.3-0.8,7.3-2.4,9.2c-1.6,1.8-3.7,2.7-6.3,2.7c-2.6,0-4.7-0.9-6.3-2.7c-1.6-1.8-2.4-4.9-2.4-9.2v-60.5H872.4z"/>
</g>
<g class="st15">
	<path class="st16" d="M1302.3,264.3c-4.4,0.2-9.9,0.7-16.4,1.8c-6.5,1-12.1,2.3-16.7,3.9c-5.4,1.9-9,5-10.9,9.4
		c-1.9,4.4-2.8,9.2-2.8,14.4v198.7c0,10.4-2.1,21.4-6.3,33.1c-4.2,11.7-10.3,22.1-18.3,31.2c-9.3,10.7-20.4,19.1-33.2,25
		c-12.8,6-27.5,9-44.1,9c-25.7,0-46.5-7.2-62.5-21.6c-16-14.4-24-33.8-24-58.2c0-10.7,2.8-20.2,8.3-28.5
		c5.5-8.3,13.5-12.4,24.1-12.4c9.4,0,17,2.6,22.8,7.9c5.7,5.3,8.6,12.2,8.6,20.9c0,5-1,10.1-3.1,15.1c-2,5-4.3,9.5-6.9,13.5
		c-2.4,3.6-5,7.9-8,12.8c-3,4.9-5.1,9.3-6.4,13.2c3.3,5.2,8.5,9.8,15.5,13.7c7,3.9,16.4,5.9,28.2,5.9c11.5,0,20.9-2.6,28.2-7.9
		c7.3-5.3,12.8-12.3,16.4-21.1c3.5-8.2,5.9-18.3,7.4-30.2c1.5-12,2.2-25.4,2.2-40.2V296.2c0-5.5-0.9-10.1-2.7-13.8
		c-1.8-3.7-5.6-7-11.2-9.8c-4.9-2.5-11-4.4-18.3-5.8c-7.3-1.3-13.3-2.2-18.1-2.5v-16.8h147.9V264.3z"/>
</g>
<g class="st17">
	<path class="st11" d="M106.1,156.7h308.3v72.3H188.9v118.3h213.6v69.7H188.9v131.5h237.3v73.6H106.1V156.7z"/>
</g>
<g>
	<path class="st18" d="M719.8,282.2c42.6,16.9,107.2,18,166.6,13.8c26-42,58.7-76.5,105.6-97.8c28.2-12.8,80.2-19.7,99.6,8.2
		c13.5,18.6-2.5,40.4-13.8,49.3c-19,15.2-43.9,22.9-70.2,29.8c-34.5,9.2-76.7,15.1-116.4,18.1c-49.2,80.4-86.8,208.4-114.4,296.8
		c-1.6,5.5-10.1,2.9-8.5-2.8c26.9-89.2,63.5-209.3,113.1-293.2c-60.2,3.8-122,2.5-165.3-14.5c-17.1-6.7-37.6-17.6-37.6-40.8
		c0-21,14.9-33,24.8-42.9c5.1-5.1,13.2,3.9,7.4,8.9c-8,8-22.7,18.2-22.7,35.1C687.2,266.2,706.1,276.9,719.8,282.2z M1005.9,277.6
		c23.5-6.4,49.6-14.3,66.7-28.4c8.7-7.2,22.9-23.1,12.4-38.3c-10.8-16.6-41.2-18.9-66.3-12.8c-16.3,3.7-32.5,11.4-45.4,19.1
		c-31.4,18.1-56.4,46.3-76.9,77.9C934,292.1,973.3,286.2,1005.9,277.6z"/>
</g>
<g class="st19">
	<path class="st20" d="M1081.2,706.4c-11.3-0.6-19.8-3.8-25.5-9.4s-8.7-12.8-9.2-21.3s1.6-17.9,6.1-28.1
		c4.6-10.2,11.2-20.4,19.8-30.5c8.7-10.1,19.4-19.5,32.1-28.1c12.8-8.7,27.3-15.8,43.7-21.5c-22.1-6.9-39.9-16.9-53.6-30
		c-13.7-13.1-24.3-28-31.7-44.7c-7.4-16.7-12.1-34.5-14.2-53.4c-2.1-18.9-2.1-37.5-0.2-55.8c2.5-23.3,8.2-45.6,17-66.9
		c8.8-21.3,20.1-39.8,33.8-55.8c13.7-15.9,29.6-28.2,47.7-36.9c18.1-8.7,37.7-12.2,58.8-10.6c12,0.9,21.3,5.6,28.1,13.9
		c6.8,8.4,11.6,19.2,14.6,32.6c3,13.4,4.4,28.7,4.3,45.8c-0.2,17.2-1.3,34.9-3.3,53.2c-2.1,18.3-4.8,36.6-8.3,55
		c-3.5,18.4-6.9,35.6-10.4,51.5c-3.5,15.9-6.7,29.8-9.7,41.8c-3,12-5,21-5.9,26.9c9.1-8.8,16.6-16.2,22.4-22.2
		c5.8-6,10.7-11.7,14.6-17.2c3.9-5.5,7.5-11.2,10.6-17c3.1-5.8,6.8-12.8,10.9-21c2.5-3.5,4.8-4.3,6.9-2.4c2,1.9,2.6,3.8,1.7,5.7
		c-6.6,12.9-13.3,24.1-20.1,33.5c-6.8,9.4-13.2,17.5-19.4,24.1c-6.1,6.6-11.9,12.2-17.2,16.8c-5.4,4.6-9.9,8.4-13.7,11.6
		c-6.6,26.5-12.9,50-18.9,70.6c-6,20.6-13.6,37.9-22.9,51.7c-9.3,13.9-21,24.1-35,30.7C1121.3,706,1103.2,708.3,1081.2,706.4z
		 M1155.8,574.6c-9.8,4.1-18.8,9.9-27.2,17.5c-8.4,7.6-15.8,15.7-22.2,24.6c-6.5,8.8-11.8,18-16.1,27.4c-4.3,9.4-7.3,18-9.2,25.8
		c-1.9,7.7-2.4,14.2-1.7,19.4c0.8,5.2,3.1,8.1,6.9,8.7c5.4,0.9,10.5-0.6,15.6-4.7c5-4.1,9.8-9.7,14.2-16.8
		c4.4-7.1,8.7-15.2,12.8-24.3c4.1-9.1,7.9-18.4,11.3-27.9c3.5-9.4,6.5-18.5,9-27.2C1151.7,588.4,1154,580.9,1155.8,574.6z
		 M1204.5,221.2c-9.8-1.3-19.1,0.3-27.9,4.7c-8.8,4.4-17.1,10.9-24.8,19.6c-7.7,8.7-14.8,19.1-21.3,31.2
		c-6.5,12.1-12,25.2-16.8,39.2c-4.7,14-8.4,28.7-11.1,43.9c-2.7,15.3-4.2,30.3-4.5,45.1c-0.3,15.1,0.6,30.2,2.8,45.1
		c2.2,15,5.8,29.1,10.9,42.3c5,13.2,11.5,25.4,19.4,36.6c7.9,11.2,17.3,20.6,28.3,28.1c4.7-22.4,10.1-46.1,16.1-71.3
		c6-25.2,11.8-50.1,17.5-74.7c5.7-24.6,10.7-48.1,15.1-70.6c4.4-22.5,7.4-42.4,9-59.8c1.6-17.3,1.5-31.3-0.2-42.1
		C1215.3,228,1211.1,222.1,1204.5,221.2z"/>
</g>
<g class="st13">
	<path class="st21" d="M429.5,91.8l6.3,125.5h-11.4c-34.9-83.1-64.7-111.6-141.4-111.6h-22.2v195.9h21.6c41.2,0,67.8-34.9,78.6-83.1
		h9.5v187.7h-10.8c-15.2-63.4-39.3-88.1-83.7-88.1h-15.2v203.5H285c80.5,0,136.3-55.2,155.3-124.3H453l-5.1,138.2H99.9v-13.9h37.4
		V105.8H99.9V91.8H429.5z"/>
</g>
<g class="st22">
	<path class="st11" d="M902,166.4v383.1c0,11,4.5,18.8,13.6,23.3c9.1,4.6,24.4,8,45.9,10.4c5.3,0,7.9,3.8,7.9,11.5
		c0,3.4-0.5,7.4-1.4,12.2c-15.3-1-31.5-1.8-48.4-2.5c-17-0.7-34.1-1.1-51.3-1.1c-16.7,0-33.8,0.4-51.3,1.1
		c-17.5,0.7-33.8,1.5-49.1,2.5c-1-4.8-1.4-8.8-1.4-12.2c0-6.7,2.4-10.5,7.2-11.5c21.5-2.9,37.1-6.5,46.6-10.8
		c9.6-4.3,14.3-11.9,14.3-23V166.4h-73.9c-14.3,0-26.4,1.4-36.2,4.3c-9.8,2.9-18.3,7.2-25.5,12.9c-7.2,5.7-13.4,13.2-18.7,22.2
		c-5.3,9.1-10.8,19.6-16.5,31.6c-1,2.4-2.5,4.1-4.7,5c-2.2,1-4.2,1.4-6.1,1.4c-5.3,0-9.8-1.4-13.6-4.3c4.8-17.2,8.4-32.5,10.8-45.9
		c2.4-13.4,4.5-24.5,6.5-33.4c1.9-8.8,3.9-15.7,6.1-20.4c2.2-4.8,5.6-7.2,10.4-7.2c3.3,0,8.1,0.2,14.3,0.7c6.2,0.5,12.8,1,19.7,1.4
		c6.9,0.5,14,1,21.2,1.4c7.2,0.5,13.9,0.7,20.1,0.7h239.6c5.7,0,12.2-0.2,19.4-0.7c7.2-0.5,14.3-1,21.5-1.4c7.2-0.5,13.7-1,19.7-1.4
		c6-0.5,10.9-0.7,14.7-0.7c4.8,0,8.2,2.5,10.4,7.5c2.2,5,4.2,12.1,6.1,21.2c1.9,9.1,3.9,20.3,6.1,33.7c2.2,13.4,5.9,28.2,11.1,44.5
		c-2.4,1-4.7,1.9-6.8,2.9c-2.2,1-4.7,1.4-7.5,1.4c-1.9,0-4.1-0.5-6.5-1.4c-2.4-1-4.1-2.6-5-5c-5.3-11.9-10.5-22.5-15.8-31.6
		c-5.3-9.1-11.4-16.5-18.3-22.2c-6.9-5.7-15.3-10-25.1-12.9c-9.8-2.9-21.9-4.3-36.2-4.3H902z"/>
</g>
<g class="st22">
	<path class="st10" d="M1170,562.8c2.7-8.4,4.7-16.9,6.3-25.7c1.5-8.7,2.7-18.9,3.6-30.5c0.9-11.6,1.4-25.1,1.7-40.6
		c0.3-15.5,0.4-34.2,0.4-56V155.6l-58.5-6.8v-25.1H1286v25.1l-55.6,6.8v241.5c0,32.5-0.1,60.8-0.4,85c-0.3,24.1-2.2,45.2-5.8,63.3
		c-3.4,16.7-9.2,31.6-17.3,44.6c-8.1,13-17.6,24.2-28.5,33.6c-10.9,9.4-22.8,17-35.5,22.8c-12.7,5.8-25.4,9.8-37.9,12.1l-12.8-20.8
		c8.7-2.3,17.1-5.7,25.1-10.1c8-4.5,15.4-9.8,22.2-16.1s12.9-13.5,18.1-21.7C1162.8,581.7,1166.9,572.7,1170,562.8z"/>
</g>
<g class="st13">
	<path class="st21" d="M173.4,158.2h171.2v54.5H237.8V364h94.7v54.5h-94.7v163.1h106.8v54.5H173.4V158.2z"/>
</g>
<g class="st22">
	<path class="st11" d="M684.5,88.6h237.2v63.8H840v477.1h-71.5V152.4h-84.1V88.6z"/>
</g>
<g class="st22">
	<path class="st10" d="M1220.3,99.3h59.6v337.9c0,34.4-5,59.2-15.1,74.4c-14.8,22.2-39,33.4-72.4,33.4c-19.8,0-36.6-3.8-50.5-11.4
		v-59.3c16.9,10.1,30,15.1,39.3,15.1c26,0,39.1-18.3,39.1-55v-17.7V99.3z"/>
</g>
<g class="st13">
	<path class="st23" d="M142.8,133v162.5H336v67.9H142.8v210.8h265.1v71.9H63V61.2h349.3V133H142.8z"/>
</g>
<g class="st22">
	<path class="st2" d="M827.8,209H701.9v-74.6h331.8V209H908.5v431.6h-80.7V209z"/>
</g>
<g class="st22">
	<path class="st24" d="M1278.5,157.8v332.5c0,23.4-3.4,43.4-10.1,59.9c-6.7,16.5-15.7,29.9-27,40.3c-11.3,10.4-24.4,18.1-39.4,23.1
		c-15,5-30.7,7.5-47.2,7.5c-15.6,0-30.8-2.5-45.5-7.5c-14.8-5-27.9-12.5-39.4-22.4c-11.5-10-20.6-22.2-27.3-36.8
		c-6.7-14.5-10.1-31.6-10.1-51.1v-35.1h48.2v29.3c0,13.9,2.3,25.9,6.8,36.1c4.6,10.2,10.4,18.7,17.6,25.4c7.2,6.7,15.2,11.7,24.1,15
		c8.9,3.3,17.9,4.9,27,4.9c6.9,0,14.7-1.3,23.4-3.9c8.7-2.6,16.8-7.2,24.4-13.7c7.6-6.5,13.9-15.1,18.9-25.7
		c5-10.6,7.5-23.7,7.5-39.4V157.8H1278.5z"/>
</g>
</svg>
