<?xml version="1.0" encoding="utf-8"?>
<!-- Generator: Adobe Illustrator 21.0.0, SVG Export Plug-In . SVG Version: 6.00 Build 0)  -->
<svg version="1.1" xmlns="http://www.w3.org/2000/svg" xmlns:xlink="http://www.w3.org/1999/xlink" x="0px" y="0px"
	 viewBox="0 0 400 400" style="enable-background:new 0 0 400 400;" xml:space="preserve">
<g id="Layer_1" style="display:none;">
	<circle style="display:inline;fill:#1A1818;" cx="200.5" cy="199.1" r="198.1"/>
	<g style="display:inline;">
		<g>
			<path style="fill:#FFFFFF;" d="M200.5,322.3c-52.7,0-95.5-42.8-95.5-95.5s42.8-95.5,95.5-95.5s95.5,42.8,95.5,95.5
				S253.2,322.3,200.5,322.3z M200.5,147.8c-43.7,0-79.1,35.6-79.1,79.1c0,43.7,35.6,79.1,79.1,79.1c43.7,0,79.1-35.6,79.1-79.1
				C279.8,183.2,244.2,147.8,200.5,147.8z"/>
		</g>
		<g>
			<polygon style="fill:#F77989;" points="238.6,106 229.8,75.8 211,75.8 190.7,75.8 171.9,75.8 163.1,106 200.9,143.2 200.9,143.2 
							"/>
			<polygon style="fill:#FC5966;" points="213.4,106 210.5,75.8 204.3,75.8 197.5,75.8 191.4,75.8 188.5,106 200.9,142.9 
				200.9,142.9 			"/>
		</g>
	</g>
</g>
<g id="Layer_2" style="display:none;">
	<circle style="display:inline;fill:#1A1818;" cx="200.5" cy="199.1" r="198.1"/>
	<g style="display:inline;">
		<g>
			<rect x="93.3" y="130" style="fill:#E9DFDF;" width="214.5" height="138.2"/>
			<polygon style="fill:#D4CBC2;" points="97.7,268.2 200.4,199.1 303.2,268.2 			"/>
			<polygon style="fill:#FFFFFF;" points="305.1,130 200.4,234.3 96,130 			"/>
		</g>
		<g>
			<g>
				<path style="fill:#7FD7C7;" d="M168.1,191c15.4-28.8,32.5,7.4,32.5,7.4l0,0c0,0,18.1-35.4,32.5-7.1c13.2,25.7-24.9,54.3-33,60.1
					l0,0C192.3,245.7,154.4,216.4,168.1,191z"/>
				<path style="fill:#A8EFE1;" d="M200.1,251.4L200.1,251.4c-8-5.9-45.7-35-32.2-60.4c15.4-28.8,32.5,7.4,32.5,7.4l0,0L200.1,251.4
					z"/>
			</g>
		</g>
	</g>
</g>
<g id="Layer_3">
	<circle style="fill:#1A1818;" cx="200.5" cy="199.1" r="198.1"/>
	<g>
		<polygon style="fill:#F77989;" points="198.8,192.3 132.2,232.4 152.2,319.8 198.8,319.8 203.2,319.8 249.7,319.8 269.7,243.1 		
			"/>
		<path style="fill:#FFFFFF;" d="M302,209.9c0-0.2,0-0.3,0-0.5c0-1,0-1.9-0.2-2.7c-2.2-49.8-46.7-89.6-101.2-89.6
			c-51.6,0-94.3,35.6-100.6,81.4c-0.8,3.6-1.2,7.3-1.2,11c0,30.5,26.8,55.2,59.9,55.2c23.7,0,44.2-12.7,54-31.2
			c8.6,12.4,23.7,20.5,40.8,20.5c26.4,0,47.9-19.5,48.6-43.7l0,0C302,210.2,302,210,302,209.9z"/>
		<path style="fill:#FC5966;" d="M212.6,84.2c-20.8-19.3-23.5,15.6-23.5,15.6l0,0c0,0-24.9-23.9-27.9,3.6
			c-2.9,24.9,36.1,37.6,44.2,40l0,0C209.8,136.2,230.9,101.3,212.6,84.2z"/>
	</g>
</g>
<g id="Layer_4" style="display:none;">
	<circle style="display:inline;fill:#1A1818;" cx="200.5" cy="199.1" r="198.1"/>
	<g style="display:inline;">
		<g>
			<path style="fill:#FC5966;" d="M114.7,137c14.4,33.2,47.4,56.4,85.8,56.4c35.6,0,66.5-19.8,82.3-49.1c0.7-2.4,1.2-4.7,1.7-7.3
				H114.7z"/>
		</g>
		<g>
			<path style="fill:#FFFFFF;" d="M200.5,201.9c-56.2,0-102.1-45.7-102.1-102.1v-8.5h204.2v8.5C302.6,156,256.9,201.9,200.5,201.9z
				 M115.9,108.3c4.2,43,40.6,76.7,84.7,76.7s80.4-33.7,84.7-76.7H115.9z"/>
		</g>
		<g>
			<path style="fill:#FFFFFF;" d="M146,306.9c0-18.6,24.4-33.9,54.7-33.9c30.1,0,54.7,15.2,54.7,33.9H146z"/>
		</g>
		<g>
			<rect x="192.1" y="195.8" style="fill:#FFFFFF;" width="16.9" height="89.1"/>
		</g>
	</g>
</g>
</svg>
