<?xml version="1.0" encoding="utf-8"?>
<!-- Generator: Adobe Illustrator 21.0.0, SVG Export Plug-In . SVG Version: 6.00 Build 0)  -->
<svg version="1.1" id="Layer_1" xmlns="http://www.w3.org/2000/svg" xmlns:xlink="http://www.w3.org/1999/xlink" x="0px" y="0px"
	 viewBox="0 0 200 200" style="enable-background:new 0 0 200 200;" xml:space="preserve">
<style type="text/css">
	.style-bride-groom0{fill:#364E57;}
	.style-bride-groom1{fill:#435A65;}
	.style-bride-groom2{fill:#FFFFFF;}
	.style-bride-groom3{fill:#293944;}
</style>
<g>
	<g>
		<path class="style-bride-groom0" d="M68.5,33.4c-6.7-1.2-9-5.9-9.8-8.8c-0.4-1.4-5.8-1.4-6.2,0c-0.8,3-3.1,7.6-9.8,8.8c0,0-3.8,16.2,12.2,16.2
			h1.4C72.3,49.6,68.5,33.4,68.5,33.4z"/>
		<ellipse class="style-bride-groom1" cx="55.6" cy="24.7" rx="3.2" ry="1.6"/>
	</g>
	<rect x="51.8" y="145.1" class="style-bride-groom0" width="4.7" height="37.3"/>
	<path class="style-bride-groom2" d="M86.2,104.6c-2.5-22.2-23-30.9-23-30.9L74.7,54c-4.1-11.8,4.4-18.7,4.4-18.7l-10.9-2
		c-1.1,6.4-7.2,11.5-12.8,11.5s-12.5-6.4-12.6-11.5l-9.9,2c0,0,8.1,7.9,4.4,18.7l10.4,19.7c0,0-20.5,8.7-23,30.9s-8.9,44-18.1,52.2
		c0,0,13.6,8.1,43.7,9.6c0,0,3.5,0.2,5.1,0.2c1.7,0,5.1-0.2,5.1-0.2c30.1-1.6,43.7-9.6,43.7-9.6C95,148.6,88.7,126.8,86.2,104.6z"/>
	<path class="style-bride-groom0" d="M33.7,184.6c0-4,9.2-7.3,20.4-7.3c11.3,0,20.4,3.3,20.4,7.3H33.7z"/>
</g>
<g>
	<path class="style-bride-groom2" d="M163,21.1c0,0-6.6-1.5-6.6-12.1h-2.9h-3.2h-0.5h-3.4h-2.7c-0.4,10.6-6.2,12.1-6.2,12.1
		c-9.1,4.5,12.3,44,12.3,44h0.5C150.3,65.1,172.1,25.6,163,21.1z"/>
	<polygon class="style-bride-groom0" points="178,188.9 171,74 151.4,74.5 150.3,74.5 130.6,74 123.7,188.9 144.6,191 150.8,112 157.1,191 	"/>
	<polygon class="style-bride-groom3" points="172.4,95.9 162,104.6 167.9,189.9 178,188.9 	"/>
	<path class="style-bride-groom3" d="M144.6,191l5.9-74.3c-0.2-11.2-0.3-18.9-0.3-18.9l-8.6,1.4l-7.1,90.8L144.6,191z"/>
	<path class="style-bride-groom3" d="M180.8,110.6l12.6-1.6c0,0-7-74.5-9.8-79.1c-1.5-2.4-3.1-3.4-4.3-3.7c-0.4-0.1-15.1-4.4-15.1-4.4
		s-6.1,20.7-14.4,40l0.9,54.2c0,0-0.9,7.4,10.1,7c11.1-0.4,14.7-0.4,14.7-0.4s-2.8-27.5-3.2-45.9c-0.1-5.4,0.4-11.8,1.1-18.3
		L180.8,110.6z"/>
	<path class="style-bride-groom0" d="M163,21.1l6.7,2.5c0,0-4.2,46-19.8,45.6c-0.2,0,0-8,0-8L163,21.1z"/>
	<path class="style-bride-groom0" d="M119.7,110.6l-12.6-1.6c0,0,7-74.5,9.8-79.1c1.5-2.4,3.1-3.4,4.3-3.7c0.4-0.1,15.1-4.4,15.1-4.4
		s6.1,20.7,14.4,40v54.5c0,0,0,7.1-11.1,6.6c-11.1-0.4-14.7-0.4-14.7-0.4s2.8-27.5,3.2-45.9c0.1-5.4-0.4-11.8-1.1-18.3L119.7,110.6z
		"/>
	<path class="style-bride-groom3" d="M137.5,21.1l-6.7,2.5c0,0,4.2,46,19.8,45.6c0.2,0,0-8,0-8L137.5,21.1z"/>
</g>
</svg>
