<?xml version="1.0" encoding="utf-8"?>
<!-- Generator: Adobe Illustrator 21.0.0, SVG Export Plug-In . SVG Version: 6.00 Build 0)  -->
<svg version="1.1" id="Layer_1" xmlns="http://www.w3.org/2000/svg" xmlns:xlink="http://www.w3.org/1999/xlink" x="0px" y="0px"
	 viewBox="0 0 400 400" style="enable-background:new 0 0 400 400;" xml:space="preserve">
<style type="text/css">
	.st0{fill:#1A1818;}
	.st1{fill:#E9DFDF;}
	.st2{fill:#D4CBC2;}
	.st3{fill:#FFFFFF;}
	.st4{fill:#7FD7C7;}
	.st5{fill:#A8EFE1;}
</style>
<circle class="st0" cx="199.1" cy="196" r="117"/>
<g>
	<g>
		<rect x="135.8" y="155.2" class="st1" width="126.7" height="81.6"/>
		<polygon class="st2" points="138.4,236.8 199.1,196 259.8,236.8 		"/>
		<polygon class="st3" points="260.9,155.2 199.1,216.8 137.4,155.2 		"/>
	</g>
	<g>
		<g>
			<path class="st4" d="M180,191.2c9.1-17,19.2,4.4,19.2,4.4l0,0c0,0,10.7-20.9,19.2-4.2c7.8,15.2-14.7,32.1-19.5,35.5l0,0
				C194.3,223.5,171.9,206.2,180,191.2z"/>
			<path class="st5" d="M198.9,226.9L198.9,226.9c-4.7-3.5-27-20.7-19-35.7c9.1-17,19.2,4.4,19.2,4.4l0,0L198.9,226.9z"/>
		</g>
	</g>
</g>
</svg>
