<?xml version="1.0" encoding="utf-8"?>
<!-- Generator: Adobe Illustrator 21.0.0, SVG Export Plug-In . SVG Version: 6.00 Build 0)  -->
<svg version="1.1" id="Layer_1" xmlns="http://www.w3.org/2000/svg" xmlns:xlink="http://www.w3.org/1999/xlink" x="0px" y="0px"
	 viewBox="0 0 400 400" style="enable-background:new 0 0 400 400;" xml:space="preserve">
<g id="Layer_1_1_">
	<g>
		<path style="fill:#0A55BF;" d="M198.2,0C128.5,0,72,56.5,72,126.2s126.2,273.6,126.2,273.6s126.2-204,126.2-273.6S267.8,0,198.2,0
			z"/>
	</g>
	<g>
		<rect x="142.5" y="89.8" style="fill:#FFFFFF;" width="111.7" height="98.9"/>
		<polygon style="fill:#FFFFFF;" points="122.8,101.9 198.2,50.2 273.5,101.9 		"/>
	</g>
</g>
<g id="Layer_2" style="display:none;">
	<g style="display:inline;">
		<g>
			<path style="fill:#FC5966;" d="M198.2,0C128.5,0,72,56.5,72,126.2s126.2,273.6,126.2,273.6s126.2-204,126.2-273.6
				S267.8,0,198.2,0z"/>
		</g>
		<path style="fill:#FFFFFF;" d="M264,86.8c-31.4-60.4-65.8,16.1-65.8,16.1l0,0c0,0-36.9-74.3-66.1-14.7
			c-26.5,54.1,51.1,114.2,67.5,126.2l0,0C215.4,202.1,291.8,140.4,264,86.8z"/>
	</g>
</g>
</svg>
