<?xml version="1.0" encoding="utf-8"?>
<!-- Generator: Adobe Illustrator 21.0.0, SVG Export Plug-In . SVG Version: 6.00 Build 0)  -->
<svg version="1.1" id="Layer_1" xmlns="http://www.w3.org/2000/svg" xmlns:xlink="http://www.w3.org/1999/xlink" x="0px" y="0px"
	 viewBox="0 0 400 400" style="enable-background:new 0 0 400 400;" xml:space="preserve">
<circle style="fill:#1A1818;" cx="200.6" cy="200.1" r="198.1"/>
<g>
	<rect x="112.3" y="185.9" style="fill:#FFFFFF;" width="179.5" height="136.3"/>
	<rect x="112.3" y="185.9" style="fill:#FFFFFF;" width="179.5" height="136.3"/>
	
		<ellipse transform="matrix(0.7072 -0.7071 0.7071 0.7072 -163.6781 225.3815)" style="fill:#364E57;" cx="190.2" cy="310.3" rx="4.7" ry="4.7"/>
	
		<ellipse transform="matrix(0.7071 -0.7071 0.7071 0.7071 -137.8919 209.8387)" style="fill:#364E57;" cx="184.4" cy="271.4" rx="4.7" ry="4.7"/>
	
		<ellipse transform="matrix(0.7072 -0.7071 0.7071 0.7072 -72.9178 210.3529)" style="fill:#364E57;" cx="217.5" cy="193.2" rx="4.7" ry="4.7"/>
	
		<ellipse transform="matrix(0.7072 -0.7071 0.7071 0.7072 -112.0252 194.1807)" style="fill:#364E57;" cx="178.4" cy="232.3" rx="4.7" ry="4.7"/>
	
		<ellipse transform="matrix(0.7071 -0.7071 0.7071 0.7071 -144.2219 233.5004)" style="fill:#364E57;" cx="209.7" cy="290.8" rx="4.7" ry="4.7"/>
	
		<ellipse transform="matrix(0.7071 -0.7071 0.7071 0.7071 -92.4461 202.347)" style="fill:#364E57;" cx="198" cy="212.8" rx="4.7" ry="4.7"/>
	
		<ellipse transform="matrix(0.7072 -0.7071 0.7071 0.7072 -118.3544 217.8416)" style="fill:#364E57;" cx="203.8" cy="251.8" rx="4.7" ry="4.7"/>
	
		<ellipse transform="matrix(0.7071 -0.7071 0.7071 0.7071 -86.1163 178.6854)" style="fill:#364E57;" cx="172.6" cy="193.3" rx="4.7" ry="4.7"/>
	
		<ellipse transform="matrix(0.7072 -0.7071 0.7071 0.7072 -151.0195 178.0596)" style="fill:#364E57;" cx="139.4" cy="271.3" rx="4.7" ry="4.7"/>
	
		<ellipse transform="matrix(0.7072 -0.7071 0.7071 0.7072 -176.9382 193.5502)" style="fill:#364E57;" cx="145.2" cy="310.4" rx="4.7" ry="4.7"/>
	
		<ellipse transform="matrix(0.7072 -0.7071 0.7071 0.7072 -97.0456 152.3252)" style="fill:#364E57;" cx="135.4" cy="193.3" rx="4.7" ry="4.7"/>
	
		<ellipse transform="matrix(0.7072 -0.7071 0.7071 0.7072 -105.6962 170.52)" style="fill:#364E57;" cx="153" cy="212.9" rx="4.7" ry="4.7"/>
	
		<ellipse transform="matrix(0.7071 -0.7071 0.7071 0.7071 -131.562 186.177)" style="fill:#364E57;" cx="159" cy="251.9" rx="4.7" ry="4.7"/>
	
		<ellipse transform="matrix(0.7072 -0.7071 0.7071 0.7072 -157.3488 201.7206)" style="fill:#364E57;" cx="164.8" cy="290.8" rx="4.7" ry="4.7"/>
	
		<ellipse transform="matrix(0.7071 -0.7071 0.7071 0.7071 -125.2478 162.5194)" style="fill:#364E57;" cx="133.6" cy="232.4" rx="4.7" ry="4.7"/>
	<path style="fill:#364E57;" d="M291.1,216c0.2-0.2,0.3-0.3,0.5-0.7v-5.4c-0.2-0.2-0.3-0.5-0.5-0.7c-1.9-1.9-4.9-1.9-6.8,0
		c-1.9,1.9-1.9,4.9,0,6.8C286.4,217.9,289.4,217.9,291.1,216z"/>
	
		<ellipse transform="matrix(0.7071 -0.7071 0.7071 0.7071 -111.4352 273.3315)" style="fill:#364E57;" cx="274.2" cy="271.2" rx="4.7" ry="4.7"/>
	
		<ellipse transform="matrix(0.7072 -0.7071 0.7071 0.7072 -137.3418 288.8238)" style="fill:#364E57;" cx="280" cy="310.2" rx="4.7" ry="4.7"/>
	
		<ellipse transform="matrix(0.7072 -0.7071 0.7071 0.7072 -170.6089 169.8894)" style="fill:#364E57;" cx="119.8" cy="290.9" rx="4.7" ry="4.7"/>
	<path style="fill:#364E57;" d="M112.3,216l0.2,0.2c1.9,1.9,4.9,1.9,6.8,0c1.9-1.9,1.9-4.9,0-6.8c-1.9-1.9-4.9-1.9-6.8,0l-0.2,0.2
		V216z"/>
	<path style="fill:#364E57;" d="M291.6,247.3c-0.5,0.2-1,0.5-1.4,1c-1.9,1.9-1.9,4.9,0,6.8c0.3,0.3,0.8,0.7,1.4,1V247.3z"/>
	<path style="fill:#364E57;" d="M117.2,255.3c1.9-1.9,1.9-4.9,0-6.8c-1.4-1.4-3.4-1.7-5.1-1v8.8C114,257,115.9,256.7,117.2,255.3z"
		/>
	
		<ellipse transform="matrix(0.7071 -0.7071 0.7071 0.7071 -98.7758 226.0086)" style="fill:#364E57;" cx="223.4" cy="232.2" rx="4.7" ry="4.7"/>
	
		<ellipse transform="matrix(0.7071 -0.7071 0.7071 0.7071 -150.5519 257.162)" style="fill:#364E57;" cx="235.1" cy="310.3" rx="4.7" ry="4.7"/>
	
		<ellipse transform="matrix(0.7072 -0.7071 0.7071 0.7072 -124.6835 241.5023)" style="fill:#364E57;" cx="229.2" cy="271.3" rx="4.7" ry="4.7"/>
	
		<ellipse transform="matrix(0.7072 -0.7071 0.7071 0.7072 -85.5765 257.6747)" style="fill:#364E57;" cx="268.3" cy="232.1" rx="4.7" ry="4.7"/>
	
		<ellipse transform="matrix(0.7072 -0.7071 0.7071 0.7072 -79.2472 234.0138)" style="fill:#364E57;" cx="242.9" cy="212.7" rx="4.7" ry="4.7"/>
	
		<ellipse transform="matrix(0.7071 -0.7071 0.7071 0.7071 -105.1056 249.67)" style="fill:#364E57;" cx="248.8" cy="251.7" rx="4.7" ry="4.7"/>
	
		<ellipse transform="matrix(0.7072 -0.7071 0.7071 0.7072 -59.6569 242.1844)" style="fill:#364E57;" cx="262.5" cy="193.1" rx="4.7" ry="4.7"/>
	
		<ellipse transform="matrix(0.7072 -0.7071 0.7071 0.7072 -131.0127 265.163)" style="fill:#364E57;" cx="254.6" cy="290.7" rx="4.7" ry="4.7"/>
</g>
<path style="fill:#7FD7C7;" d="M101.3,203.5v-35c0-13.4,10.8-24.2,24.2-24.2h153.1c13.4,0,24.2,10.8,24.2,24.2v35H101.3z"/>
<g>
	<path style="fill:#FFFFFF;" d="M283.3,96.1c-8.6-15.2-27.9-20.5-43.2-11.9c-15.2,8.6-44,61.3-44,61.3s60.1,2.2,75.2-6.4
		C286.7,130.7,292,111.4,283.3,96.1z M218.3,133.2c0,0,19.6-32.3,28.4-37.4c8.8-5.1,20.1-1.9,25.2,6.9c5.1,8.8,1.9,20.1-6.9,25.2
		C256.1,132.9,218.3,133.2,218.3,133.2z"/>
	<path style="fill:#FFFFFF;" d="M132.5,139.3c15.2,8.6,75.2,6.4,75.2,6.4s-28.8-52.7-44-61.3c-15.2-8.6-34.5-3.4-43.2,11.9
		C112,111.4,117.4,130.7,132.5,139.3z M139.1,128c-8.8-5.1-12-16.3-6.9-25.2c5.1-8.8,16.3-12,25.2-6.9c8.8,5.1,28.4,37.4,28.4,37.4
		S147.9,132.9,139.1,128z"/>
</g>
<g id="Layer_1_1_" style="display:none;">
	<circle style="display:inline;fill:#1A1818;" cx="200.5" cy="199.1" r="198.1"/>
	<g style="display:inline;">
		<g>
			<path style="fill:#FFFFFF;" d="M200.5,322.3c-52.7,0-95.5-42.8-95.5-95.5s42.8-95.5,95.5-95.5s95.5,42.8,95.5,95.5
				S253.2,322.3,200.5,322.3z M200.5,147.8c-43.7,0-79.1,35.6-79.1,79.1c0,43.7,35.6,79.1,79.1,79.1c43.7,0,79.1-35.6,79.1-79.1
				C279.8,183.2,244.2,147.8,200.5,147.8z"/>
		</g>
		<g>
			<polygon style="fill:#F77989;" points="238.6,106 229.8,75.8 211,75.8 190.7,75.8 171.9,75.8 163.1,106 200.9,143.2 200.9,143.2 
							"/>
			<polygon style="fill:#FC5966;" points="213.4,106 210.5,75.8 204.3,75.8 197.5,75.8 191.4,75.8 188.5,106 200.9,142.9 
				200.9,142.9 			"/>
		</g>
	</g>
</g>
<g id="Layer_3" style="display:none;">
	<circle style="display:inline;fill:#1A1818;" cx="200.5" cy="199.1" r="198.1"/>
	<g style="display:inline;">
		<polygon style="fill:#F77989;" points="198.8,192.3 132.2,232.4 152.2,319.8 198.8,319.8 203.2,319.8 249.7,319.8 269.7,243.1 		
			"/>
		<path style="fill:#FFFFFF;" d="M302,209.9c0-0.2,0-0.3,0-0.5c0-1,0-1.9-0.2-2.7c-2.2-49.8-46.7-89.6-101.2-89.6
			c-51.6,0-94.3,35.6-100.6,81.4c-0.8,3.6-1.2,7.3-1.2,11c0,30.5,26.8,55.2,59.9,55.2c23.7,0,44.2-12.7,54-31.2
			c8.6,12.4,23.7,20.5,40.8,20.5c26.4,0,47.9-19.5,48.6-43.7l0,0C302,210.2,302,210,302,209.9z"/>
		<path style="fill:#FC5966;" d="M212.6,84.2c-20.8-19.3-23.5,15.6-23.5,15.6l0,0c0,0-24.9-23.9-27.9,3.6
			c-2.9,24.9,36.1,37.6,44.2,40l0,0C209.8,136.2,230.9,101.3,212.6,84.2z"/>
	</g>
</g>
<g id="Layer_4" style="display:none;">
	<circle style="display:inline;fill:#1A1818;" cx="200.5" cy="199.1" r="198.1"/>
	<g style="display:inline;">
		<g>
			<path style="fill:#FC5966;" d="M114.7,137c14.4,33.2,47.4,56.4,85.8,56.4c35.6,0,66.5-19.8,82.3-49.1c0.7-2.4,1.2-4.7,1.7-7.3
				L114.7,137L114.7,137z"/>
		</g>
		<g>
			<path style="fill:#FFFFFF;" d="M200.5,201.9c-56.2,0-102.1-45.7-102.1-102.1v-8.5h204.2v8.5C302.6,156,256.9,201.9,200.5,201.9z
				 M115.9,108.3c4.2,43,40.6,76.7,84.7,76.7s80.4-33.7,84.7-76.7H115.9z"/>
		</g>
		<g>
			<path style="fill:#FFFFFF;" d="M146,306.9c0-18.6,24.4-33.9,54.7-33.9c30.1,0,54.7,15.2,54.7,33.9H146z"/>
		</g>
		<g>
			<rect x="192.1" y="195.8" style="fill:#FFFFFF;" width="16.9" height="89.1"/>
		</g>
	</g>
</g>
</svg>
