<?xml version="1.0" encoding="utf-8"?>
<!-- Generator: Adobe Illustrator 21.0.0, SVG Export Plug-In . SVG Version: 6.00 Build 0)  -->
<svg version="1.1" id="Layer_1" xmlns="http://www.w3.org/2000/svg" xmlns:xlink="http://www.w3.org/1999/xlink" x="0px" y="0px"
	 viewBox="0 0 400 400" style="enable-background:new 0 0 400 400;" xml:space="preserve">
<style type="text/css">
	.st0{fill:#FFFFFF;}
	.st1{fill:#FC5966;}
</style>
<g>
	<rect x="199.9" y="159.8" class="st0" width="40.9" height="36.2"/>
	<polygon class="st0" points="192.7,164.2 220.3,145.3 247.9,164.2 	"/>
</g>
<g>
	<path class="st1" d="M199.3,125.7c-25.5,0-46.2,20.7-46.2,46.2c0,25.5,46.2,100.2,46.2,100.2s46.2-74.7,46.2-100.2
		C245.5,146.4,224.8,125.7,199.3,125.7z"/>
</g>
<g>
	<path class="st0" d="M191.4,207.9c0.2-0.3,0.2-0.6,0.1-0.9l-2.9-10.8l12.6-9.8l11.5,19.9l2.3-4c0.3-0.5,0.4-1.1,0.2-1.7l-2.8-25.1
		c0,0,5.7-6.2,10.2-10.6c4.4-4.4,5.5-8.3,4.8-11c-0.1-0.4-0.3-0.9-0.7-1.3l0,0c0,0,0,0,0,0c0,0,0,0,0,0l0,0
		c-0.4-0.4-0.8-0.6-1.3-0.7c-2.7-0.7-6.6,0.4-11,4.8c-4.4,4.4-10.6,10.1-10.6,10.1l-25.1-2.8c-0.6-0.2-1.2-0.1-1.7,0.2l-4,2.3
		l19.9,11.5l-9.8,12.6l-10.8-2.9c-0.3-0.1-0.6-0.1-0.9,0.1l-2.8,1.3l13.4,8.4l8.4,13.4L191.4,207.9z"/>
	<path class="st0" d="M226.6,152.5L226.6,152.5C226.6,152.5,226.6,152.5,226.6,152.5C226.6,152.5,226.6,152.5,226.6,152.5
		L226.6,152.5c-0.4-0.4-0.9-0.6-1.3-0.7c-2.7-0.7-6.6,0.4-11,4.8c-4.4,4.4-10.6,10.1-10.6,10.1l-25.1-2.8c-0.6-0.2-1.2-0.1-1.7,0.2
		l-4,2.3l19.9,11.5l-9.8,12.6l-10.8-2.9c-0.3-0.1-0.6-0.1-0.9,0.1l-2.8,1.3l13.4,8.4L226.6,152.5z"/>
</g>
</svg>
