<?xml version="1.0" encoding="utf-8"?>
<!-- Generator: Adobe Illustrator 21.0.0, SVG Export Plug-In . SVG Version: 6.00 Build 0)  -->
<svg version="1.1" id="Layer_1" xmlns="http://www.w3.org/2000/svg" xmlns:xlink="http://www.w3.org/1999/xlink" x="0px" y="0px"
	 viewBox="0 0 400 400" style="enable-background:new 0 0 400 400;" xml:space="preserve">
<style type="text/css">
	.style-cupcake0{fill:#1A1818;}
	.style-cupcake1{fill:#F77989;}
	.style-cupcake2{fill:#FFFFFF;}
	.style-cupcake3{fill:#FC5966;}
</style>
<circle class="style-cupcake0" cx="199.7" cy="193.2" r="117"/>
<g>
	<polygon class="style-cupcake1" points="198.7,189.1 159.4,212.8 171.2,264.4 198.7,264.4 201.3,264.4 228.8,264.4 240.6,219.1 	"/>
	<path class="style-cupcake2" d="M259.7,199.5c0-0.1,0-0.2,0-0.3c0-0.6,0-1.1-0.1-1.6c-1.3-29.4-27.6-52.9-59.8-52.9c-30.5,0-55.7,21-59.4,48.1
		c-0.5,2.1-0.7,4.3-0.7,6.5c0,18,15.8,32.6,35.4,32.6c14,0,26.1-7.5,31.9-18.4c5.1,7.3,14,12.1,24.1,12.1
		c15.6,0,28.3-11.5,28.7-25.8h0C259.7,199.7,259.7,199.6,259.7,199.5z"/>
	<path class="style-cupcake3" d="M206.9,125.3c-12.3-11.4-13.9,9.2-13.9,9.2l0,0c0,0-14.7-14.1-16.5,2.1c-1.7,14.7,21.3,22.2,26.1,23.6l0,0
		C205.2,156,217.7,135.4,206.9,125.3z"/>
</g>
</svg>
