<?xml version="1.0" encoding="utf-8"?>
<!-- Generator: Adobe Illustrator 21.0.0, SVG Export Plug-In . SVG Version: 6.00 Build 0)  -->
<svg version="1.1" id="Layer_1" xmlns="http://www.w3.org/2000/svg" xmlns:xlink="http://www.w3.org/1999/xlink" x="0px" y="0px"
	 viewBox="0 0 400 400" style="enable-background:new 0 0 400 400;" xml:space="preserve">
<style type="text/css">
	.st0{fill:#1A1818;}
	.st1{fill:#FFFFFF;}
	.st2{fill:#F77989;}
	.st3{fill:#FC5966;}
</style>
<circle class="st0" cx="199.6" cy="195.3" r="117"/>
<g>
	<g>
		<path class="st1" d="M199.6,268.1c-31.1,0-56.4-25.3-56.4-56.4s25.3-56.4,56.4-56.4s56.4,25.3,56.4,56.4
			C256,242.8,230.7,268.1,199.6,268.1z M199.6,165c-25.8,0-46.7,21-46.7,46.7c0,25.8,21,46.7,46.7,46.7c25.8,0,46.7-21,46.7-46.7
			C246.4,185.9,225.4,165,199.6,165z"/>
	</g>
	<g>
		<polygon class="st2" points="222.1,140.3 216.9,122.5 205.8,122.5 193.8,122.5 182.7,122.5 177.5,140.3 199.8,162.3 199.8,162.3 
					"/>
		<polygon class="st3" points="207.2,140.3 205.5,122.5 201.8,122.5 197.8,122.5 194.2,122.5 192.5,140.3 199.8,162.1 199.8,162.1 
					"/>
	</g>
</g>
</svg>
