<?xml version="1.0" encoding="utf-8"?>
<!-- Generator: Adobe Illustrator 21.0.0, SVG Export Plug-In . SVG Version: 6.00 Build 0)  -->
<svg version="1.1" id="Layer_1" xmlns="http://www.w3.org/2000/svg" xmlns:xlink="http://www.w3.org/1999/xlink" x="0px" y="0px"
	 viewBox="0 0 80 80" style="enable-background:new 0 0 80 80;" xml:space="preserve">
<polygon style="fill:#83CDC1;" points="70.1,53.7 9.5,53.7 9.5,29.4 70.1,29.4 60.9,41.6 "/>
<line style="fill:none;stroke:#F05B67;stroke-width:2;stroke-miterlimit:10;" x1="9.5" y1="27" x2="9.5" y2="80"/>
<rect x="18.5" y="36" style="fill:none;" width="43.9" height="16.8"/>
<g style="enable-background:new    ;">
	<path style="fill:#111314;" d="M23.2,46.1v-3.8l-3.4-4.8h-1.4V36h4.7v1.4h-1.4l2.5,3.6l2.3-3.6H25V36h4.6v1.4h-1.5l-3.2,4.8v3.8
		h1.6v1.4h-4.9v-1.4H23.2z"/>
	<path style="fill:#111314;" d="M36.7,43.5h-4.1l-0.9,2.6h1.4v1.4h-4.6v-1.4h1.4l3.2-8.8h-1.4V36h5.9v1.3h-1.4l3.1,8.8h1.3v1.4h-4.5
		v-1.4h1.4L36.7,43.5z M36.2,42.1l-1.5-4.8h-0.2L33,42.1H36.2z"/>
	<path style="fill:#111314;" d="M44.3,46.1v-3.8l-3.4-4.8h-1.4V36h4.7v1.4h-1.4l2.5,3.6l2.3-3.6h-1.4V36h4.6v1.4h-1.5l-3.2,4.8v3.8
		h1.6v1.4h-4.9v-1.4H44.3z"/>
	<path style="fill:#111314;" d="M52.1,47.5v-2h2v2H52.1z M52.7,44.4l-0.4-4.9V36h1.7v3.5l-0.4,4.9H52.7z"/>
</g>
</svg>
